<svg width="1440" height="810" viewBox="0 0 1440 810" fill="none" xmlns="http://www.w3.org/2000/svg">
<path fill-rule="evenodd" clip-rule="evenodd" d="M889 1344C1419.19 1344 1849 914.193 1849 384C1849 -146.193 1419.19 -576 889 -576C358.807 -576 -71 -146.193 -71 384C-71 914.193 358.807 1344 889 1344ZM889 1331.37C365.783 1331.37 -58.3682 907.217 -58.3682 384C-58.3682 -139.217 365.783 -563.368 889 -563.368C1412.22 -563.368 1836.37 -139.217 1836.37 384C1836.37 907.217 1412.22 1331.37 889 1331.37ZM1817.42 384C1817.42 896.753 1401.75 1312.42 889.001 1312.42C376.248 1312.42 -39.4206 896.753 -39.4206 384C-39.4206 -128.753 376.248 -544.421 889.001 -544.421C1401.75 -544.421 1817.42 -128.753 1817.42 384ZM-26.7884 384C-26.7884 889.777 383.224 1299.79 889.001 1299.79C1394.78 1299.79 1804.79 889.777 1804.79 384C1804.79 -121.777 1394.78 -531.789 889.001 -531.789C383.224 -531.789 -26.7884 -121.777 -26.7884 384ZM889 1280.84C1384.31 1280.84 1785.84 879.312 1785.84 384C1785.84 -111.312 1384.31 -512.842 889 -512.842C393.688 -512.842 -7.84206 -111.312 -7.84206 384C-7.84206 879.312 393.688 1280.84 889 1280.84ZM888.999 1268.21C400.663 1268.21 4.78852 872.336 4.78852 384C4.78852 -104.336 400.663 -500.211 888.999 -500.211C1377.33 -500.211 1773.21 -104.336 1773.21 384C1773.21 872.336 1377.33 1268.21 888.999 1268.21ZM1754.26 384C1754.26 861.872 1366.87 1249.26 889.001 1249.26C411.129 1249.26 23.7374 861.872 23.7374 384C23.7374 -93.8716 411.129 -481.263 889.001 -481.263C1366.87 -481.263 1754.26 -93.8716 1754.26 384ZM36.3683 384C36.3683 854.896 418.104 1236.63 889 1236.63C1359.9 1236.63 1741.63 854.896 1741.63 384C1741.63 -86.8954 1359.9 -468.632 889 -468.632C418.104 -468.632 36.3683 -86.8954 36.3683 384ZM889 1217.68C1349.43 1217.68 1722.68 844.431 1722.68 384C1722.68 -76.4311 1349.43 -449.684 889 -449.684C428.569 -449.684 55.3159 -76.4311 55.3159 384C55.3159 844.431 428.569 1217.68 889 1217.68ZM889.001 1205.05C435.546 1205.05 67.9481 837.455 67.9481 384C67.9481 -69.4548 435.546 -437.053 889.001 -437.053C1342.46 -437.053 1710.05 -69.4548 1710.05 384C1710.05 837.455 1342.46 1205.05 889.001 1205.05ZM1691.1 384C1691.1 826.991 1331.99 1186.11 889 1186.11C446.009 1186.11 86.8944 826.991 86.8944 384C86.8944 -58.9905 446.009 -418.105 889 -418.105C1331.99 -418.105 1691.1 -58.9905 1691.1 384ZM99.526 384C99.526 820.014 452.985 1173.47 889 1173.47C1325.01 1173.47 1678.47 820.014 1678.47 384C1678.47 -52.0142 1325.01 -405.474 889 -405.474C452.985 -405.474 99.526 -52.0142 99.526 384ZM889 1154.53C1314.55 1154.53 1659.53 809.55 1659.53 384C1659.53 -41.55 1314.55 -386.526 889 -386.526C463.45 -386.526 118.474 -41.55 118.474 384C118.474 809.55 463.45 1154.53 889 1154.53ZM889 1141.89C470.427 1141.89 131.106 802.573 131.106 384C131.106 -34.5739 470.427 -373.895 889 -373.895C1307.57 -373.895 1646.9 -34.5739 1646.9 384C1646.9 802.573 1307.57 1141.89 889 1141.89ZM1627.95 384C1627.95 792.109 1297.11 1122.95 889 1122.95C480.89 1122.95 150.052 792.109 150.052 384C150.052 -24.1094 480.89 -354.947 889 -354.947C1297.11 -354.947 1627.95 -24.1094 1627.95 384ZM162.684 384C162.684 785.133 487.866 1110.32 889 1110.32C1290.13 1110.32 1615.32 785.133 1615.32 384C1615.32 -17.1332 1290.13 -342.316 889 -342.316C487.866 -342.316 162.684 -17.1332 162.684 384ZM889 1091.37C1279.67 1091.37 1596.37 774.669 1596.37 384C1596.37 -6.66882 1279.67 -323.368 889 -323.368C498.331 -323.368 181.632 -6.66882 181.632 384C181.632 774.669 498.331 1091.37 889 1091.37ZM888.999 1078.74C505.307 1078.74 194.263 767.693 194.263 384C194.263 0.307312 505.307 -310.737 888.999 -310.737C1272.69 -310.737 1583.74 0.307312 1583.74 384C1583.74 767.693 1272.69 1078.74 888.999 1078.74ZM1564.79 384C1564.79 757.228 1262.23 1059.79 889.001 1059.79C515.772 1059.79 213.211 757.228 213.211 384C213.211 10.7719 515.772 -291.789 889.001 -291.789C1262.23 -291.789 1564.79 10.7719 1564.79 384ZM225.842 384C225.842 750.252 522.748 1047.16 889 1047.16C1255.25 1047.16 1552.16 750.252 1552.16 384C1552.16 17.748 1255.25 -279.158 889 -279.158C522.748 -279.158 225.842 17.748 225.842 384ZM888.999 1028.21C1244.79 1028.21 1533.21 739.788 1533.21 384C1533.21 28.2122 1244.79 -260.211 888.999 -260.211C533.212 -260.211 244.789 28.2122 244.789 384C244.789 739.788 533.212 1028.21 888.999 1028.21ZM888.999 1015.58C540.188 1015.58 257.42 732.811 257.42 384C257.42 35.1886 540.188 -247.579 888.999 -247.579C1237.81 -247.579 1520.58 35.1886 1520.58 384C1520.58 732.811 1237.81 1015.58 888.999 1015.58ZM1501.63 384C1501.63 722.347 1227.35 996.632 889 996.632C550.653 996.632 276.368 722.347 276.368 384C276.368 45.653 550.653 -228.632 889 -228.632C1227.35 -228.632 1501.63 45.653 1501.63 384ZM289 384C289 715.371 557.629 984 889 984C1220.37 984 1489 715.371 1489 384C1489 52.6292 1220.37 -216 889 -216C557.629 -216 289 52.6292 289 384ZM889 965.052C1209.91 965.052 1470.05 704.906 1470.05 384C1470.05 63.0934 1209.91 -197.053 889 -197.053C568.094 -197.053 307.948 63.0934 307.948 384C307.948 704.906 568.094 965.052 889 965.052ZM889.001 952.421C575.071 952.421 320.58 697.93 320.58 384C320.58 70.0697 575.071 -184.421 889.001 -184.421C1202.93 -184.421 1457.42 70.0697 1457.42 384C1457.42 697.93 1202.93 952.421 889.001 952.421ZM1438.47 384C1438.47 687.466 1192.47 933.474 889 933.474C585.534 933.474 339.526 687.466 339.526 384C339.526 80.5341 585.534 -165.474 889 -165.474C1192.47 -165.474 1438.47 80.5341 1438.47 384ZM352.158 384C352.158 680.49 592.51 920.842 889 920.842C1185.49 920.842 1425.84 680.49 1425.84 384C1425.84 87.5103 1185.49 -152.842 889 -152.842C592.51 -152.842 352.158 87.5103 352.158 384ZM889 901.895C1175.03 901.895 1406.9 670.025 1406.9 384C1406.9 97.9745 1175.03 -133.895 889 -133.895C602.975 -133.895 371.106 97.9745 371.106 384C371.106 670.025 602.975 901.895 889 901.895ZM889.001 889.263C609.952 889.263 383.738 663.049 383.738 384C383.738 104.951 609.952 -121.263 889.001 -121.263C1168.05 -121.263 1394.26 104.951 1394.26 384C1394.26 663.049 1168.05 889.263 889.001 889.263ZM1375.32 384C1375.32 652.585 1157.58 870.316 889 870.316C620.415 870.316 402.684 652.585 402.684 384C402.684 115.415 620.415 -102.316 889 -102.316C1157.58 -102.316 1375.32 115.415 1375.32 384ZM415.314 384C415.314 645.608 627.39 857.684 888.999 857.684C1150.61 857.684 1362.68 645.608 1362.68 384C1362.68 122.391 1150.61 -89.6843 888.999 -89.6843C627.39 -89.6843 415.314 122.391 415.314 384ZM888.999 838.737C1140.14 838.737 1343.74 635.144 1343.74 384C1343.74 132.856 1140.14 -70.7369 888.999 -70.7369C637.855 -70.7369 434.263 132.856 434.263 384C434.263 635.144 637.855 838.737 888.999 838.737ZM889 826.105C644.832 826.105 446.894 628.168 446.894 384C446.894 139.832 644.832 -58.1055 889 -58.1055C1133.17 -58.1055 1331.1 139.832 1331.1 384C1331.1 628.168 1133.17 826.105 889 826.105ZM1312.16 384C1312.16 617.704 1122.7 807.158 889 807.158C655.296 807.158 465.842 617.704 465.842 384C465.842 150.296 655.296 -39.158 889 -39.158C1122.7 -39.158 1312.16 150.296 1312.16 384ZM478.474 384C478.474 610.727 662.273 794.526 889 794.526C1115.73 794.526 1299.53 610.727 1299.53 384C1299.53 157.272 1115.73 -26.5264 889 -26.5264C662.273 -26.5264 478.474 157.272 478.474 384ZM889 775.579C1105.26 775.579 1280.58 600.263 1280.58 384C1280.58 167.737 1105.26 -7.57874 889 -7.57874C672.736 -7.57874 497.421 167.737 497.421 384C497.421 600.263 672.736 775.579 889 775.579ZM888.999 762.947C679.712 762.947 510.052 593.287 510.052 384C510.052 174.713 679.712 5.05267 888.999 5.05267C1098.29 5.05267 1267.95 174.713 1267.95 384C1267.95 593.287 1098.29 762.947 888.999 762.947ZM1249 384C1249 582.823 1087.82 744 889 744C690.177 744 529 582.823 529 384C529 185.177 690.177 24 889 24C1087.82 24 1249 185.177 1249 384ZM541.632 384C541.632 575.846 697.154 731.368 889 731.368C1080.85 731.368 1236.37 575.846 1236.37 384C1236.37 192.154 1080.85 36.6315 889 36.6315C697.154 36.6315 541.632 192.154 541.632 384ZM889 712.421C1070.38 712.421 1217.42 565.382 1217.42 384C1217.42 202.618 1070.38 55.5787 889 55.5787C707.619 55.5787 560.579 202.618 560.579 384C560.579 565.382 707.619 712.421 889 712.421ZM889.001 699.789C714.595 699.789 573.212 558.406 573.212 384C573.212 209.594 714.595 68.2104 889.001 68.2104C1063.41 68.2104 1204.79 209.594 1204.79 384C1204.79 558.406 1063.41 699.789 889.001 699.789ZM1185.84 384C1185.84 547.941 1052.94 680.842 889 680.842C725.059 680.842 592.158 547.941 592.158 384C592.158 220.059 725.059 87.158 889 87.158C1052.94 87.158 1185.84 220.059 1185.84 384ZM604.789 384C604.789 540.965 732.034 668.211 888.999 668.211C1045.96 668.211 1173.21 540.965 1173.21 384C1173.21 227.035 1045.96 99.7895 888.999 99.7895C732.034 99.7895 604.789 227.035 604.789 384ZM1154.26 384C1154.26 530.501 1035.5 649.263 889.001 649.263C742.5 649.263 623.737 530.501 623.737 384C623.737 237.499 742.5 118.737 889.001 118.737C1035.5 118.737 1154.26 237.499 1154.26 384ZM636.368 384C636.368 523.525 749.475 636.632 889 636.632C1028.52 636.632 1141.63 523.525 1141.63 384C1141.63 244.476 1028.52 131.369 889 131.369C749.475 131.369 636.368 244.476 636.368 384Z" fill="url(#paint0_linear)" fill-opacity="0.2"/>
<defs>
<linearGradient id="paint0_linear" x1="374.164" y1="-112.813" x2="374.164" y2="881.998" gradientUnits="userSpaceOnUse">
<stop stop-color="#E1E2E3"/>
<stop offset="0.487041" stop-color="#979797"/>
<stop offset="1" stop-color="#BABABA"/>
</linearGradient>
</defs>
</svg>
