<svg width="1920" height="1920" viewBox="0 0 1920 1920" fill="none" xmlns="http://www.w3.org/2000/svg">
<path fill-rule="evenodd" clip-rule="evenodd" d="M960 1920C1490.19 1920 1920 1490.19 1920 960C1920 429.807 1490.19 0 960 0C429.807 0 0 429.807 0 960C0 1490.19 429.807 1920 960 1920ZM960 1907.37C436.783 1907.37 12.6318 1483.22 12.6318 960C12.6318 436.783 436.783 12.6315 960 12.6315C1483.22 12.6315 1907.37 436.783 1907.37 960C1907.37 1483.22 1483.22 1907.37 960 1907.37ZM1888.42 960C1888.42 1472.75 1472.75 1888.42 960.001 1888.42C447.248 1888.42 31.5794 1472.75 31.5794 960C31.5794 447.247 447.248 31.579 960.001 31.579C1472.75 31.579 1888.42 447.247 1888.42 960ZM44.2116 960C44.2116 1465.78 454.224 1875.79 960.001 1875.79C1465.78 1875.79 1875.79 1465.78 1875.79 960C1875.79 454.223 1465.78 44.2105 960.001 44.2105C454.224 44.2105 44.2116 454.223 44.2116 960ZM960 1856.84C1455.31 1856.84 1856.84 1455.31 1856.84 960C1856.84 464.688 1455.31 63.1578 960 63.1578C464.688 63.1578 63.1579 464.688 63.1579 960C63.1579 1455.31 464.688 1856.84 960 1856.84ZM959.999 1844.21C471.663 1844.21 75.7885 1448.34 75.7885 960C75.7885 471.664 471.663 75.7895 959.999 75.7895C1448.33 75.7895 1844.21 471.664 1844.21 960C1844.21 1448.34 1448.33 1844.21 959.999 1844.21ZM1825.26 960C1825.26 1437.87 1437.87 1825.26 960.001 1825.26C482.129 1825.26 94.7374 1437.87 94.7374 960C94.7374 482.128 482.129 94.7368 960.001 94.7368C1437.87 94.7368 1825.26 482.128 1825.26 960ZM107.368 960C107.368 1430.9 489.104 1812.63 960 1812.63C1430.9 1812.63 1812.63 1430.9 1812.63 960C1812.63 489.105 1430.9 107.368 960 107.368C489.104 107.368 107.368 489.105 107.368 960ZM960 1793.68C1420.43 1793.68 1793.68 1420.43 1793.68 960C1793.68 499.569 1420.43 126.316 960 126.316C499.569 126.316 126.316 499.569 126.316 960C126.316 1420.43 499.569 1793.68 960 1793.68ZM960.001 1781.05C506.546 1781.05 138.948 1413.45 138.948 960C138.948 506.545 506.546 138.947 960.001 138.947C1413.46 138.947 1781.05 506.545 1781.05 960C1781.05 1413.45 1413.46 1781.05 960.001 1781.05ZM1762.1 960C1762.1 1402.99 1402.99 1762.11 960 1762.11C517.009 1762.11 157.894 1402.99 157.894 960C157.894 517.01 517.009 157.895 960 157.895C1402.99 157.895 1762.1 517.01 1762.1 960ZM170.526 960C170.526 1396.01 523.985 1749.47 960 1749.47C1396.01 1749.47 1749.47 1396.01 1749.47 960C1749.47 523.986 1396.01 170.526 960 170.526C523.985 170.526 170.526 523.986 170.526 960ZM960 1730.53C1385.55 1730.53 1730.53 1385.55 1730.53 960C1730.53 534.45 1385.55 189.474 960 189.474C534.45 189.474 189.474 534.45 189.474 960C189.474 1385.55 534.45 1730.53 960 1730.53ZM960 1717.89C541.427 1717.89 202.106 1378.57 202.106 960C202.106 541.426 541.427 202.105 960 202.105C1378.57 202.105 1717.9 541.426 1717.9 960C1717.9 1378.57 1378.57 1717.89 960 1717.89ZM1698.95 960C1698.95 1368.11 1368.11 1698.95 960 1698.95C551.89 1698.95 221.052 1368.11 221.052 960C221.052 551.891 551.89 221.053 960 221.053C1368.11 221.053 1698.95 551.891 1698.95 960ZM233.684 960C233.684 1361.13 558.866 1686.32 960 1686.32C1361.13 1686.32 1686.32 1361.13 1686.32 960C1686.32 558.867 1361.13 233.684 960 233.684C558.866 233.684 233.684 558.867 233.684 960ZM960 1667.37C1350.67 1667.37 1667.37 1350.67 1667.37 960C1667.37 569.331 1350.67 252.632 960 252.632C569.331 252.632 252.632 569.331 252.632 960C252.632 1350.67 569.331 1667.37 960 1667.37ZM959.999 1654.74C576.307 1654.74 265.263 1343.69 265.263 960C265.263 576.307 576.307 265.263 959.999 265.263C1343.69 265.263 1654.74 576.307 1654.74 960C1654.74 1343.69 1343.69 1654.74 959.999 1654.74ZM1635.79 960C1635.79 1333.23 1333.23 1635.79 960.001 1635.79C586.772 1635.79 284.211 1333.23 284.211 960C284.211 586.772 586.772 284.211 960.001 284.211C1333.23 284.211 1635.79 586.772 1635.79 960ZM296.842 960C296.842 1326.25 593.748 1623.16 960 1623.16C1326.25 1623.16 1623.16 1326.25 1623.16 960C1623.16 593.748 1326.25 296.842 960 296.842C593.748 296.842 296.842 593.748 296.842 960ZM959.999 1604.21C1315.79 1604.21 1604.21 1315.79 1604.21 960C1604.21 604.212 1315.79 315.789 959.999 315.789C604.212 315.789 315.789 604.212 315.789 960C315.789 1315.79 604.212 1604.21 959.999 1604.21ZM959.999 1591.58C611.188 1591.58 328.42 1308.81 328.42 960C328.42 611.189 611.188 328.421 959.999 328.421C1308.81 328.421 1591.58 611.189 1591.58 960C1591.58 1308.81 1308.81 1591.58 959.999 1591.58ZM1572.63 960C1572.63 1298.35 1298.35 1572.63 960 1572.63C621.653 1572.63 347.368 1298.35 347.368 960C347.368 621.653 621.653 347.368 960 347.368C1298.35 347.368 1572.63 621.653 1572.63 960ZM360 960C360 1291.37 628.629 1560 960 1560C1291.37 1560 1560 1291.37 1560 960C1560 628.629 1291.37 360 960 360C628.629 360 360 628.629 360 960ZM960 1541.05C1280.91 1541.05 1541.05 1280.91 1541.05 960C1541.05 639.093 1280.91 378.947 960 378.947C639.094 378.947 378.948 639.093 378.948 960C378.948 1280.91 639.094 1541.05 960 1541.05ZM960.001 1528.42C646.071 1528.42 391.58 1273.93 391.58 960C391.58 646.07 646.071 391.579 960.001 391.579C1273.93 391.579 1528.42 646.07 1528.42 960C1528.42 1273.93 1273.93 1528.42 960.001 1528.42ZM1509.47 960C1509.47 1263.47 1263.47 1509.47 960 1509.47C656.534 1509.47 410.526 1263.47 410.526 960C410.526 656.534 656.534 410.526 960 410.526C1263.47 410.526 1509.47 656.534 1509.47 960ZM423.158 960C423.158 1256.49 663.51 1496.84 960 1496.84C1256.49 1496.84 1496.84 1256.49 1496.84 960C1496.84 663.51 1256.49 423.158 960 423.158C663.51 423.158 423.158 663.51 423.158 960ZM960 1477.89C1246.03 1477.89 1477.9 1246.03 1477.9 960C1477.9 673.974 1246.03 442.105 960 442.105C673.975 442.105 442.106 673.974 442.106 960C442.106 1246.03 673.975 1477.89 960 1477.89ZM960.001 1465.26C680.952 1465.26 454.738 1239.05 454.738 960C454.738 680.951 680.952 454.737 960.001 454.737C1239.05 454.737 1465.26 680.951 1465.26 960C1465.26 1239.05 1239.05 1465.26 960.001 1465.26ZM1446.32 960C1446.32 1228.58 1228.58 1446.32 960 1446.32C691.415 1446.32 473.684 1228.58 473.684 960C473.684 691.415 691.415 473.684 960 473.684C1228.58 473.684 1446.32 691.415 1446.32 960ZM486.314 960C486.314 1221.61 698.39 1433.68 959.999 1433.68C1221.61 1433.68 1433.68 1221.61 1433.68 960C1433.68 698.391 1221.61 486.316 959.999 486.316C698.39 486.316 486.314 698.391 486.314 960ZM959.999 1414.74C1211.14 1414.74 1414.74 1211.14 1414.74 960C1414.74 708.856 1211.14 505.263 959.999 505.263C708.855 505.263 505.263 708.856 505.263 960C505.263 1211.14 708.855 1414.74 959.999 1414.74ZM960 1402.1C715.832 1402.1 517.894 1204.17 517.894 960C517.894 715.832 715.832 517.895 960 517.895C1204.17 517.895 1402.1 715.832 1402.1 960C1402.1 1204.17 1204.17 1402.1 960 1402.1ZM1383.16 960C1383.16 1193.7 1193.7 1383.16 960 1383.16C726.296 1383.16 536.842 1193.7 536.842 960C536.842 726.296 726.296 536.842 960 536.842C1193.7 536.842 1383.16 726.296 1383.16 960ZM549.474 960C549.474 1186.73 733.273 1370.53 960 1370.53C1186.73 1370.53 1370.53 1186.73 1370.53 960C1370.53 733.272 1186.73 549.474 960 549.474C733.273 549.474 549.474 733.272 549.474 960ZM960 1351.58C1176.26 1351.58 1351.58 1176.26 1351.58 960C1351.58 743.737 1176.26 568.421 960 568.421C743.736 568.421 568.421 743.737 568.421 960C568.421 1176.26 743.736 1351.58 960 1351.58ZM959.999 1338.95C750.712 1338.95 581.052 1169.29 581.052 960C581.052 750.713 750.712 581.053 959.999 581.053C1169.29 581.053 1338.95 750.713 1338.95 960C1338.95 1169.29 1169.29 1338.95 959.999 1338.95ZM1320 960C1320 1158.82 1158.82 1320 960 1320C761.177 1320 600 1158.82 600 960C600 761.177 761.177 600 960 600C1158.82 600 1320 761.177 1320 960ZM612.632 960C612.632 1151.85 768.154 1307.37 960 1307.37C1151.85 1307.37 1307.37 1151.85 1307.37 960C1307.37 768.154 1151.85 612.632 960 612.632C768.154 612.632 612.632 768.154 612.632 960ZM960 1288.42C1141.38 1288.42 1288.42 1141.38 1288.42 960C1288.42 778.618 1141.38 631.579 960 631.579C778.619 631.579 631.579 778.618 631.579 960C631.579 1141.38 778.619 1288.42 960 1288.42ZM960.001 1275.79C785.595 1275.79 644.212 1134.41 644.212 960C644.212 785.594 785.595 644.21 960.001 644.21C1134.41 644.21 1275.79 785.594 1275.79 960C1275.79 1134.41 1134.41 1275.79 960.001 1275.79ZM1256.84 960C1256.84 1123.94 1123.94 1256.84 960 1256.84C796.059 1256.84 663.158 1123.94 663.158 960C663.158 796.059 796.059 663.158 960 663.158C1123.94 663.158 1256.84 796.059 1256.84 960ZM675.789 960C675.789 1116.97 803.034 1244.21 959.999 1244.21C1116.96 1244.21 1244.21 1116.97 1244.21 960C1244.21 803.035 1116.96 675.789 959.999 675.789C803.034 675.789 675.789 803.035 675.789 960ZM1225.26 960C1225.26 1106.5 1106.5 1225.26 960.001 1225.26C813.5 1225.26 694.737 1106.5 694.737 960C694.737 813.499 813.5 694.737 960.001 694.737C1106.5 694.737 1225.26 813.499 1225.26 960ZM707.368 960C707.368 1099.52 820.475 1212.63 960 1212.63C1099.52 1212.63 1212.63 1099.52 1212.63 960C1212.63 820.476 1099.52 707.369 960 707.369C820.475 707.369 707.368 820.476 707.368 960Z" fill="url(#paint0_linear)" fill-opacity="0.2"/>
<defs>
<linearGradient id="paint0_linear" x1="445.164" y1="463.187" x2="445.164" y2="1458" gradientUnits="userSpaceOnUse">
<stop stop-color="#E1E2E3"/>
<stop offset="0.487041" stop-color="#979797"/>
<stop offset="1" stop-color="#BABABA"/>
</linearGradient>
</defs>
</svg>
